<svg width="565" height="401" xmlns="http://www.w3.org/2000/svg">
 <!-- Created with Method Draw - http://github.com/duopixel/Method-Draw/ -->
 <defs>
  <filter height="200%" width="200%" y="-50%" x="-50%" id="svg_16_blur">
   <feGaussianBlur stdDeviation="0" in="SourceGraphic"/>
  </filter>
 </defs>
 <g>
  <title>background</title>
  <rect fill="#fcc592" id="canvas_background" height="403" width="567" y="-1" x="-1"/>
  <g display="none" overflow="visible" y="0" x="0" height="100%" width="100%" id="canvasGrid">
   <rect fill="url(#gridpattern)" stroke-width="0" y="0" x="0" height="100%" width="100%"/>
  </g>
 </g>
 <g>
  <title>Layer 1</title>
  <ellipse stroke="#000" ry="160.000003" rx="257.5" id="svg_2" cy="199.999997" cx="286" stroke-width="1.5" fill="#ffffff"/>
  <ellipse stroke="#000" ry="112.5" rx="215.500006" id="svg_3" cy="201.5" cx="287.000017" stroke-width="0" fill="#ff0000"/>
  <ellipse stroke="#000" ry="75.999997" rx="168.999997" id="svg_4" cy="205.000003" cx="283.499997" fill-opacity="null" stroke-opacity="null" stroke-width="1.5" fill="#fff"/>
  <text stroke="#000" transform="matrix(17.99181365966797,0,0,1,-6930.27049934864,0) " xml:space="preserve" text-anchor="start" font-family="Helvetica, Arial, sans-serif" font-size="24" id="svg_5" y="243" x="394.5" fill-opacity="null" stroke-opacity="null" stroke-width="0" fill="#000000"/>
  <path id="svg_8" d="m50.743969,56.633234c-1.577368,-2.840488 -3.507165,-5.140159 -5.442888,-6.748868c-2.258685,1.648936 -5.009642,2.653016 -8.00872,2.653016c-3.004966,0 -5.75988,-1.006037 -8.014583,-2.653016c-1.935719,1.608709 -3.867488,3.908381 -5.448727,6.748868c-3.670608,6.594798 -4.074286,13.359378 -0.903908,15.113344c1.419829,0.790106 2.908498,0.201206 4.446463,-1.275988c-0.26978,1.497783 -0.427326,3.121185 -0.427326,4.819219c0,7.543929 2.94003,13.654825 6.563298,13.654825c2.183865,0 3.264943,-2.225115 3.784785,-5.631934c0.517924,3.40682 1.598993,5.631934 3.774943,5.631934c3.629222,0 6.569279,-6.110897 6.569279,-13.654825c0,-1.698036 -0.157598,-3.321436 -0.433242,-4.819219c1.541867,1.477195 3.028579,2.066094 4.452349,1.275988c3.168426,-1.753966 2.758787,-8.518548 -0.911719,-15.113344l-0.000002,0zm-13.455484,-6.669373c6.096575,0 11.041215,-4.929142 11.041215,-11.009609s-4.94464,-11.009622 -11.041215,-11.009622c-6.098649,0 -11.047194,4.930123 -11.047194,11.009622s4.948546,11.009609 11.047194,11.009609z" fill-opacity="null" stroke-opacity="null" stroke-width="0" stroke="#000" fill="#000000"/>
  <path stroke="#000" id="svg_9" d="m529.984948,64.628421c-1.768562,-3.632099 -3.932272,-6.572663 -6.102627,-8.629701c-2.532463,2.108476 -5.616866,3.392382 -8.979465,3.392382c-3.369201,0 -6.458041,-1.286408 -8.986039,-3.392382c-2.17035,2.057038 -4.33627,4.997602 -6.109173,8.629701c-4.115527,8.432693 -4.568134,17.082485 -1.013472,19.325261c1.591927,1.010299 3.26104,0.25728 4.985423,-1.631592c-0.30248,1.915198 -0.479123,3.991024 -0.479123,6.16228c0,9.646336 3.296394,17.46027 7.358842,17.46027c2.448574,0 3.660691,-2.845229 4.243542,-7.20149c0.580702,4.356261 1.792808,7.20149 4.232508,7.20149c4.069123,0 7.365548,-7.813934 7.365548,-17.46027c0,-2.171259 -0.176701,-4.247082 -0.485755,-6.16228c1.728759,1.888872 3.395676,2.641891 4.992023,1.631592c3.552474,-2.242776 3.093183,-10.89257 -1.022229,-19.325261l-0.000003,0zm-15.086437,-8.528051c6.835547,0 12.379532,-6.302838 12.379532,-14.077861s-5.543985,-14.077879 -12.379532,-14.077879c-6.837872,0 -12.386236,6.304092 -12.386236,14.077879s5.548364,14.077861 12.386236,14.077861z" stroke-opacity="null" stroke-width="0" fill="#ff0000"/>
  <path stroke="#000" id="svg_10" d="m54.496859,345.950558c-1.720729,-3.21301 -3.825918,-5.814276 -5.937573,-7.633963c-2.463969,1.86519 -5.464951,3.000952 -8.736604,3.000952c-3.278077,0 -6.283375,-1.137976 -8.743,-3.000952c-2.11165,1.819687 -4.21899,4.420954 -5.943943,7.633963c-4.004217,7.459687 -4.444583,15.111423 -0.986061,17.095416c1.548872,0.893726 3.172841,0.227594 4.850586,-1.443331c-0.294299,1.694213 -0.466164,3.53052 -0.466164,5.451246c0,8.533294 3.207239,15.445617 7.159813,15.445617c2.382349,0 3.561683,-2.516932 4.12877,-6.370547c0.564996,3.853614 1.74432,6.370547 4.118035,6.370547c3.959069,0 7.166338,-6.912324 7.166338,-15.445617c0,-1.920728 -0.171922,-3.757033 -0.472618,-5.451246c1.682002,1.670925 3.303836,2.337056 4.857007,1.443331c3.456393,-1.983993 3.009524,-9.635732 -0.994582,-17.095416l-0.000002,0zm-14.678405,-7.544042c6.650671,0 12.044712,-5.575585 12.044712,-12.453488s-5.394041,-12.453503 -12.044712,-12.453503c-6.652933,0 -12.051235,5.576694 -12.051235,12.453503s5.398301,12.453488 12.051235,12.453488z" stroke-width="0" fill="#ff0000"/>
  <path id="svg_11" d="m538.032201,361.048835c-1.720766,-2.933617 -3.825999,-5.308687 -5.937699,-6.97014c-2.464022,1.702999 -5.465066,2.739999 -8.736789,2.739999c-3.278146,0 -6.283508,-1.039021 -8.743185,-2.739999c-2.111695,1.661453 -4.219079,4.036523 -5.944068,6.97014c-4.004302,6.811019 -4.444677,13.797386 -0.986082,15.608858c1.548905,0.81601 3.172909,0.207803 4.850689,-1.317824c-0.294306,1.54689 -0.466174,3.223518 -0.466174,4.977224c0,7.791268 3.207307,14.10252 7.159964,14.10252c2.382399,0 3.561758,-2.298069 4.128858,-5.816586c0.565008,3.518517 1.744357,5.816586 4.118122,5.816586c3.959153,0 7.166489,-6.311252 7.166489,-14.10252c0,-1.753708 -0.171925,-3.430334 -0.472628,-4.977224c1.682038,1.525627 3.303906,2.133834 4.85711,1.317824c3.456466,-1.811472 3.009588,-8.797842 -0.994603,-15.608858l-0.000002,0zm-14.678716,-6.888038c6.650812,0 12.044967,-5.090752 12.044967,-11.370576s-5.394155,-11.37059 -12.044967,-11.37059c-6.653074,0 -12.05149,5.091764 -12.05149,11.37059s5.398416,11.370576 12.05149,11.370576z" stroke-width="0" stroke="#000" fill="#000000"/>
  <path id="svg_12" d="m107.5,41" opacity="0.5" stroke-width="0" stroke="#000" fill="#894F3F"/>
  <text font-style="italic" font-weight="bold" opacity="0.81" filter="url(#svg_16_blur)" stroke="#000" transform="matrix(1.769838591197652,0,0,2.372400277043766,-561.9237551876056,-306.21150861176403) " xml:space="preserve" text-anchor="start" font-family="Georgia, Times, 'Times New Roman', serif" font-size="24" id="svg_16" y="225.001176" x="410.888017" fill-opacity="null" stroke-opacity="null" stroke-width="0" fill="#000000">БЕЛАРУСЬ</text>
 </g>
</svg>