<svg width="42" height="76" xmlns="http://www.w3.org/2000/svg">
 <!-- Created with Method Draw - http://github.com/duopixel/Method-Draw/ -->

 <g>
  <title>background</title>
  <rect x="-1" y="-1" width="44" height="78" id="canvas_background" fill="#fcc592"/>
 </g>
 <g>
  <title>Layer 1</title>
  <path fill="#56ffaa" stroke-width="1.5" stroke-opacity="null" d="m36,34.26043c-1.72077,-3.11988 -3.39711,-5.64575 -5.50881,-7.41269c-2.46402,1.81113 -5.46507,2.91397 -8.73679,2.91397c-3.27814,0 -6.28351,-1.10499 -8.74318,-2.91397c-2.1117,1.76694 -4.21908,4.29281 -5.94407,7.41269c-4.0043,7.24347 -4.44467,14.67342 -0.98608,16.5999c1.5489,0.86782 3.17291,0.221 4.85069,-1.40149c-0.29431,1.6451 -0.46618,3.42819 -0.46618,5.29324c0,8.28595 3.20731,14.99792 7.15996,14.99792c2.3824,0 3.56176,-2.44398 4.12886,-6.18589c0.56501,3.74191 1.74436,6.18589 4.11812,6.18589c3.95915,0 7.16649,-6.71197 7.16649,-14.99792c0,-1.86506 -0.17193,-3.64814 -0.47263,-5.29324c1.68204,1.62249 3.30391,2.26932 4.85711,1.40149c3.45646,-1.92648 3.00959,-9.35643 -0.9946,-16.5999l-0.42889,0zm-14.24983,-7.32537c6.65081,0 12.04497,-5.41398 12.04497,-12.09252s-5.39416,-12.09254 -12.04497,-12.09254c-6.65307,0 -12.05148,5.41505 -12.05148,12.09254s5.39841,12.09252 12.05148,12.09252z" id="svg_1" opacity="0.61" stroke="#000"/>
 </g>
</svg>