<svg width="42" height="76" xmlns="http://www.w3.org/2000/svg">
 <!-- Created with Method Draw - http://github.com/duopixel/Method-Draw/ -->

 <g>
  <title>background</title>
  <rect fill="#fcc592" id="canvas_background" height="78" width="44" y="-1" x="-1"/>
 </g>
 <g>
  <title>Layer 1</title>
  <path stroke="#000" opacity="0.61" id="svg_1" d="m36,34.260433c-1.720765,-3.11988 -3.397114,-5.645748 -5.508813,-7.412691c-2.464021,1.811126 -5.465065,2.913969 -8.736786,2.913969c-3.278146,0 -6.283507,-1.104991 -8.743183,-2.913969c-2.111694,1.766943 -4.219078,4.292811 -5.944067,7.412691c-4.0043,7.243466 -4.444676,14.673414 -0.986082,16.599901c1.548904,0.86782 3.172908,0.220997 4.850687,-1.401495c-0.294305,1.645105 -0.466174,3.428187 -0.466174,5.29324c0,8.285954 3.207306,14.997921 7.159962,14.997921c2.382399,0 3.561757,-2.443978 4.128857,-6.185894c0.565008,3.741916 1.744356,6.185894 4.11812,6.185894c3.959152,0 7.166487,-6.711967 7.166487,-14.997921c0,-1.865056 -0.171925,-3.648135 -0.472627,-5.29324c1.682037,1.622492 3.303905,2.269316 4.857108,1.401495c3.456465,-1.926487 3.009587,-9.356437 -0.994602,-16.599901l-0.428887,0zm-14.249827,-7.325376c6.650809,0 12.044963,-5.413975 12.044963,-12.09252s-5.394154,-12.092535 -12.044963,-12.092535c-6.653072,0 -12.051487,5.415052 -12.051487,12.092535s5.398415,12.09252 12.051487,12.09252z" stroke-opacity="null" stroke-width="1.5" fill="#ff7f00"/>
 </g>
</svg>